<?xml version="1.0" encoding="utf-8" ?>
<svg baseProfile="tiny" height="100%" version="1.2" width="100%" xmlns="http://www.w3.org/2000/svg" xmlns:ev="http://www.w3.org/2001/xml-events" xmlns:xlink="http://www.w3.org/1999/xlink"><defs /><text fill="black" font-size="30px" x="10" y="32">FPV Band and Channel Overview</text><text fill="black" x="10" y="70">Boscam A/TBS</text><line stroke="rgb(127,127,127)" x1="0" x2="1879" y1="50" y2="50" /><polyline fill="red" points="1170,70 1208,70 1213,90 1165,90" /><rect fill="blue" height="20" width="1" x="1188" y="70" /><text fill="blue" x="1189" y="70">1</text><text fill="blue" x="1189" y="102">5725</text><polyline fill="red" points="1230,70 1268,70 1273,90 1225,90" /><rect fill="blue" height="20" width="1" x="1248" y="70" /><text fill="blue" x="1249" y="70">2</text><text fill="blue" x="1249" y="102">5745</text><polyline fill="red" points="1290,70 1328,70 1333,90 1285,90" /><rect fill="blue" height="20" width="1" x="1308" y="70" /><text fill="blue" x="1309" y="70">3</text><text fill="blue" x="1309" y="102">5765</text><polyline fill="red" points="1350,70 1388,70 1393,90 1345,90" /><rect fill="blue" height="20" width="1" x="1368" y="70" /><text fill="blue" x="1369" y="70">4</text><text fill="blue" x="1369" y="102">5785</text><polyline fill="red" points="1410,70 1448,70 1453,90 1405,90" /><rect fill="blue" height="20" width="1" x="1428" y="70" /><text fill="blue" x="1429" y="70">5</text><text fill="blue" x="1429" y="102">5805</text><polyline fill="red" points="1470,70 1508,70 1513,90 1465,90" /><rect fill="blue" height="20" width="1" x="1488" y="70" /><text fill="blue" x="1489" y="70">6</text><text fill="blue" x="1489" y="102">5825</text><polyline fill="red" points="1530,70 1568,70 1573,90 1525,90" /><rect fill="blue" height="20" width="1" x="1548" y="70" /><text fill="blue" x="1549" y="70">7</text><text fill="blue" x="1549" y="102">5845</text><polyline fill="red" points="1590,70 1628,70 1633,90 1585,90" /><rect fill="blue" height="20" width="1" x="1608" y="70" /><text fill="blue" x="1609" y="70">8</text><text fill="blue" x="1609" y="102">5865</text><text fill="black" x="10" y="130">Boscam B</text><line stroke="rgb(127,127,127)" x1="0" x2="1879" y1="110" y2="110" /><polyline fill="red" points="1194,130 1232,130 1237,150 1189,150" /><rect fill="blue" height="20" width="1" x="1212" y="130" /><text fill="blue" x="1213" y="130">1</text><text fill="blue" x="1213" y="162">5733</text><polyline fill="red" points="1251,130 1289,130 1294,150 1246,150" /><rect fill="blue" height="20" width="1" x="1269" y="130" /><text fill="blue" x="1270" y="130">2</text><text fill="blue" x="1270" y="162">5752</text><polyline fill="red" points="1308,130 1346,130 1351,150 1303,150" /><rect fill="blue" height="20" width="1" x="1326" y="130" /><text fill="blue" x="1327" y="130">3</text><text fill="blue" x="1327" y="162">5771</text><polyline fill="red" points="1365,130 1403,130 1408,150 1360,150" /><rect fill="blue" height="20" width="1" x="1383" y="130" /><text fill="blue" x="1384" y="130">4</text><text fill="blue" x="1384" y="162">5790</text><polyline fill="red" points="1422,130 1460,130 1465,150 1417,150" /><rect fill="blue" height="20" width="1" x="1440" y="130" /><text fill="blue" x="1441" y="130">5</text><text fill="blue" x="1441" y="162">5809</text><polyline fill="red" points="1479,130 1517,130 1522,150 1474,150" /><rect fill="blue" height="20" width="1" x="1497" y="130" /><text fill="blue" x="1498" y="130">6</text><text fill="blue" x="1498" y="162">5828</text><polyline fill="red" points="1536,130 1574,130 1579,150 1531,150" /><rect fill="blue" height="20" width="1" x="1554" y="130" /><text fill="blue" x="1555" y="130">7</text><text fill="blue" x="1555" y="162">5847</text><polyline fill="red" points="1593,130 1631,130 1636,150 1588,150" /><rect fill="blue" height="20" width="1" x="1611" y="130" /><text fill="blue" x="1612" y="130">8</text><text fill="blue" x="1612" y="162">5866</text><text fill="black" x="10" y="190">Boscam E/DJI</text><line stroke="rgb(127,127,127)" x1="0" x2="1879" y1="170" y2="170" /><polyline fill="red" points="930,190 968,190 973,210 925,210" /><rect fill="blue" height="20" width="1" x="948" y="190" /><text fill="blue" x="949" y="190">4</text><text fill="blue" x="949" y="222">5645</text><polyline fill="red" points="990,190 1028,190 1033,210 985,210" /><rect fill="blue" height="20" width="1" x="1008" y="190" /><text fill="blue" x="1009" y="190">3</text><text fill="blue" x="1009" y="222">5665</text><polyline fill="red" points="1050,190 1088,190 1093,210 1045,210" /><rect fill="blue" height="20" width="1" x="1068" y="190" /><text fill="blue" x="1069" y="190">2</text><text fill="blue" x="1069" y="222">5685</text><polyline fill="red" points="1110,190 1148,190 1153,210 1105,210" /><rect fill="blue" height="20" width="1" x="1128" y="190" /><text fill="blue" x="1129" y="190">1</text><text fill="blue" x="1129" y="222">5705</text><polyline fill="red" points="1650,190 1688,190 1693,210 1645,210" /><rect fill="blue" height="20" width="1" x="1668" y="190" /><text fill="blue" x="1669" y="190">5</text><text fill="blue" x="1669" y="222">5885</text><polyline fill="red" points="1710,190 1748,190 1753,210 1705,210" /><rect fill="blue" height="20" width="1" x="1728" y="190" /><text fill="blue" x="1729" y="190">6</text><text fill="blue" x="1729" y="222">5905</text><polyline fill="red" points="1770,190 1808,190 1813,210 1765,210" /><rect fill="blue" height="20" width="1" x="1788" y="190" /><text fill="blue" x="1789" y="190">7</text><text fill="blue" x="1789" y="222">5925</text><polyline fill="red" points="1830,190 1868,190 1873,210 1825,210" /><rect fill="blue" height="20" width="1" x="1848" y="190" /><text fill="blue" x="1849" y="190">8</text><text fill="blue" x="1849" y="222">5945</text><text fill="black" x="10" y="250">Boscam F/IRC/FS</text><line stroke="rgb(127,127,127)" x1="0" x2="1879" y1="230" y2="230" /><polyline fill="red" points="1215,250 1253,250 1258,270 1210,270" /><rect fill="blue" height="20" width="1" x="1233" y="250" /><text fill="blue" x="1234" y="250">1</text><text fill="blue" x="1234" y="282">5740</text><polyline fill="red" points="1275,250 1313,250 1318,270 1270,270" /><rect fill="blue" height="20" width="1" x="1293" y="250" /><text fill="blue" x="1294" y="250">2</text><text fill="blue" x="1294" y="282">5760</text><polyline fill="red" points="1335,250 1373,250 1378,270 1330,270" /><rect fill="blue" height="20" width="1" x="1353" y="250" /><text fill="blue" x="1354" y="250">3</text><text fill="blue" x="1354" y="282">5780</text><polyline fill="red" points="1395,250 1433,250 1438,270 1390,270" /><rect fill="blue" height="20" width="1" x="1413" y="250" /><text fill="blue" x="1414" y="250">4</text><text fill="blue" x="1414" y="282">5800</text><polyline fill="red" points="1455,250 1493,250 1498,270 1450,270" /><rect fill="blue" height="20" width="1" x="1473" y="250" /><text fill="blue" x="1474" y="250">5</text><text fill="blue" x="1474" y="282">5820</text><polyline fill="red" points="1515,250 1553,250 1558,270 1510,270" /><rect fill="blue" height="20" width="1" x="1533" y="250" /><text fill="blue" x="1534" y="250">6</text><text fill="blue" x="1534" y="282">5840</text><polyline fill="red" points="1575,250 1613,250 1618,270 1570,270" /><rect fill="blue" height="20" width="1" x="1593" y="250" /><text fill="blue" x="1594" y="250">7</text><text fill="blue" x="1594" y="282">5860</text><polyline fill="red" points="1635,250 1673,250 1678,270 1630,270" /><rect fill="blue" height="20" width="1" x="1653" y="250" /><text fill="blue" x="1654" y="250">8</text><text fill="blue" x="1654" y="282">5880</text><text fill="black" x="10" y="310">Race Band</text><line stroke="rgb(127,127,127)" x1="0" x2="1879" y1="290" y2="290" /><polyline fill="red" points="969,310 1007,310 1012,330 964,330" /><rect fill="blue" height="20" width="1" x="987" y="310" /><text fill="blue" x="988" y="310">1</text><text fill="blue" x="988" y="342">5658</text><polyline fill="red" points="1080,310 1118,310 1123,330 1075,330" /><rect fill="blue" height="20" width="1" x="1098" y="310" /><text fill="blue" x="1099" y="310">2</text><text fill="blue" x="1099" y="342">5695</text><polyline fill="red" points="1191,310 1229,310 1234,330 1186,330" /><rect fill="blue" height="20" width="1" x="1209" y="310" /><text fill="blue" x="1210" y="310">3</text><text fill="blue" x="1210" y="342">5732</text><polyline fill="red" points="1302,310 1340,310 1345,330 1297,330" /><rect fill="blue" height="20" width="1" x="1320" y="310" /><text fill="blue" x="1321" y="310">4</text><text fill="blue" x="1321" y="342">5769</text><polyline fill="red" points="1413,310 1451,310 1456,330 1408,330" /><rect fill="blue" height="20" width="1" x="1431" y="310" /><text fill="blue" x="1432" y="310">5</text><text fill="blue" x="1432" y="342">5806</text><polyline fill="red" points="1524,310 1562,310 1567,330 1519,330" /><rect fill="blue" height="20" width="1" x="1542" y="310" /><text fill="blue" x="1543" y="310">6</text><text fill="blue" x="1543" y="342">5843</text><polyline fill="red" points="1635,310 1673,310 1678,330 1630,330" /><rect fill="blue" height="20" width="1" x="1653" y="310" /><text fill="blue" x="1654" y="310">7</text><text fill="blue" x="1654" y="342">5880</text><polyline fill="red" points="1746,310 1784,310 1789,330 1741,330" /><rect fill="blue" height="20" width="1" x="1764" y="310" /><text fill="blue" x="1765" y="310">8</text><text fill="blue" x="1765" y="342">5917</text><text fill="black" x="10" y="370">L Band</text><line stroke="rgb(127,127,127)" x1="0" x2="1879" y1="350" y2="350" /><polyline fill="red" points="81,370 119,370 124,390 76,390" /><rect fill="blue" height="20" width="1" x="99" y="370" /><text fill="blue" x="100" y="370">1</text><text fill="blue" x="100" y="402">5362</text><polyline fill="red" points="192,370 230,370 235,390 187,390" /><rect fill="blue" height="20" width="1" x="210" y="370" /><text fill="blue" x="211" y="370">2</text><text fill="blue" x="211" y="402">5399</text><polyline fill="red" points="303,370 341,370 346,390 298,390" /><rect fill="blue" height="20" width="1" x="321" y="370" /><text fill="blue" x="322" y="370">3</text><text fill="blue" x="322" y="402">5436</text><polyline fill="red" points="414,370 452,370 457,390 409,390" /><rect fill="blue" height="20" width="1" x="432" y="370" /><text fill="blue" x="433" y="370">4</text><text fill="blue" x="433" y="402">5473</text><polyline fill="red" points="525,370 563,370 568,390 520,390" /><rect fill="blue" height="20" width="1" x="543" y="370" /><text fill="blue" x="544" y="370">5</text><text fill="blue" x="544" y="402">5510</text><polyline fill="red" points="636,370 674,370 679,390 631,390" /><rect fill="blue" height="20" width="1" x="654" y="370" /><text fill="blue" x="655" y="370">6</text><text fill="blue" x="655" y="402">5547</text><polyline fill="red" points="747,370 785,370 790,390 742,390" /><rect fill="blue" height="20" width="1" x="765" y="370" /><text fill="blue" x="766" y="370">7</text><text fill="blue" x="766" y="402">5584</text><polyline fill="red" points="858,370 896,370 901,390 853,390" /><rect fill="blue" height="20" width="1" x="876" y="370" /><text fill="blue" x="877" y="370">8</text><text fill="blue" x="877" y="402">5621</text><text fill="black" x="10" y="430">WLAN A 10</text><line stroke="rgb(127,127,127)" x1="0" x2="1879" y1="410" y2="410" /><text fill="black" x="10" y="490">WLAN A 20</text><line stroke="rgb(127,127,127)" x1="0" x2="1879" y1="470" y2="470" /><polyline fill="red" points="489,490 539,490 544,510 484,510" /><rect fill="blue" height="20" width="1" x="513" y="490" /><text fill="blue" x="514" y="490">100</text><text fill="blue" x="514" y="522">5500</text><polyline fill="red" points="549,490 599,490 604,510 544,510" /><rect fill="blue" height="20" width="1" x="573" y="490" /><text fill="blue" x="574" y="490">104</text><text fill="blue" x="574" y="522">5520</text><polyline fill="red" points="609,490 659,490 664,510 604,510" /><rect fill="blue" height="20" width="1" x="633" y="490" /><text fill="blue" x="634" y="490">108</text><text fill="blue" x="634" y="522">5540</text><polyline fill="red" points="669,490 719,490 724,510 664,510" /><rect fill="blue" height="20" width="1" x="693" y="490" /><text fill="blue" x="694" y="490">112</text><text fill="blue" x="694" y="522">5560</text><polyline fill="red" points="729,490 779,490 784,510 724,510" /><rect fill="blue" height="20" width="1" x="753" y="490" /><text fill="blue" x="754" y="490">116</text><text fill="blue" x="754" y="522">5580</text><polyline fill="red" points="789,490 839,490 844,510 784,510" /><rect fill="blue" height="20" width="1" x="813" y="490" /><text fill="blue" x="814" y="490">120</text><text fill="blue" x="814" y="522">5600</text><polyline fill="red" points="849,490 899,490 904,510 844,510" /><rect fill="blue" height="20" width="1" x="873" y="490" /><text fill="blue" x="874" y="490">124</text><text fill="blue" x="874" y="522">5620</text><polyline fill="red" points="909,490 959,490 964,510 904,510" /><rect fill="blue" height="20" width="1" x="933" y="490" /><text fill="blue" x="934" y="490">128</text><text fill="blue" x="934" y="522">5640</text><polyline fill="red" points="969,490 1019,490 1024,510 964,510" /><rect fill="blue" height="20" width="1" x="993" y="490" /><text fill="blue" x="994" y="490">132</text><text fill="blue" x="994" y="522">5660</text><polyline fill="red" points="1029,490 1079,490 1084,510 1024,510" /><rect fill="blue" height="20" width="1" x="1053" y="490" /><text fill="blue" x="1054" y="490">136</text><text fill="blue" x="1054" y="522">5680</text><polyline fill="red" points="1089,490 1139,490 1144,510 1084,510" /><rect fill="blue" height="20" width="1" x="1113" y="490" /><text fill="blue" x="1114" y="490">140</text><text fill="blue" x="1114" y="522">5700</text><polyline fill="red" points="1149,490 1199,490 1204,510 1144,510" /><rect fill="blue" height="20" width="1" x="1173" y="490" /><text fill="blue" x="1174" y="490">144</text><text fill="blue" x="1174" y="522">5720</text><polyline fill="red" points="1224,490 1274,490 1279,510 1219,510" /><rect fill="blue" height="20" width="1" x="1248" y="490" /><text fill="blue" x="1249" y="490">149</text><text fill="blue" x="1249" y="522">5745</text><polyline fill="red" points="1284,490 1334,490 1339,510 1279,510" /><rect fill="blue" height="20" width="1" x="1308" y="490" /><text fill="blue" x="1309" y="490">153</text><text fill="blue" x="1309" y="522">5765</text><polyline fill="red" points="1344,490 1394,490 1399,510 1339,510" /><rect fill="blue" height="20" width="1" x="1368" y="490" /><text fill="blue" x="1369" y="490">157</text><text fill="blue" x="1369" y="522">5785</text><polyline fill="red" points="1404,490 1454,490 1459,510 1399,510" /><rect fill="blue" height="20" width="1" x="1428" y="490" /><text fill="blue" x="1429" y="490">161</text><text fill="blue" x="1429" y="522">5805</text><polyline fill="red" points="1464,490 1514,490 1519,510 1459,510" /><rect fill="blue" height="20" width="1" x="1488" y="490" /><text fill="blue" x="1489" y="490">165</text><text fill="blue" x="1489" y="522">5825</text><text fill="black" x="10" y="550">WLAN A 40</text><line stroke="rgb(127,127,127)" x1="0" x2="1879" y1="530" y2="530" /><polyline fill="red" points="489,550 599,550 604,570 484,570" /><rect fill="blue" height="20" width="1" x="543" y="550" /><text fill="blue" x="544" y="550">102</text><text fill="blue" x="544" y="582">5510</text><polyline fill="red" points="609,550 719,550 724,570 604,570" /><rect fill="blue" height="20" width="1" x="663" y="550" /><text fill="blue" x="664" y="550">110</text><text fill="blue" x="664" y="582">5550</text><polyline fill="red" points="729,550 839,550 844,570 724,570" /><rect fill="blue" height="20" width="1" x="783" y="550" /><text fill="blue" x="784" y="550">118</text><text fill="blue" x="784" y="582">5590</text><polyline fill="red" points="849,550 959,550 964,570 844,570" /><rect fill="blue" height="20" width="1" x="903" y="550" /><text fill="blue" x="904" y="550">126</text><text fill="blue" x="904" y="582">5630</text><polyline fill="red" points="969,550 1079,550 1084,570 964,570" /><rect fill="blue" height="20" width="1" x="1023" y="550" /><text fill="blue" x="1024" y="550">134</text><text fill="blue" x="1024" y="582">5670</text><polyline fill="red" points="1089,550 1199,550 1204,570 1084,570" /><rect fill="blue" height="20" width="1" x="1143" y="550" /><text fill="blue" x="1144" y="550">142</text><text fill="blue" x="1144" y="582">5710</text><polyline fill="red" points="1224,550 1334,550 1339,570 1219,570" /><rect fill="blue" height="20" width="1" x="1278" y="550" /><text fill="blue" x="1279" y="550">151</text><text fill="blue" x="1279" y="582">5755</text><polyline fill="red" points="1344,550 1454,550 1459,570 1339,570" /><rect fill="blue" height="20" width="1" x="1398" y="550" /><text fill="blue" x="1399" y="550">159</text><text fill="blue" x="1399" y="582">5795</text><text fill="black" x="10" y="610">WLAN A 80</text><line stroke="rgb(127,127,127)" x1="0" x2="1879" y1="590" y2="590" /><polyline fill="red" points="489,610 719,610 724,630 484,630" /><rect fill="blue" height="20" width="1" x="603" y="610" /><text fill="blue" x="604" y="610">106</text><text fill="blue" x="604" y="642">5530</text><polyline fill="red" points="729,610 959,610 964,630 724,630" /><rect fill="blue" height="20" width="1" x="843" y="610" /><text fill="blue" x="844" y="610">122</text><text fill="blue" x="844" y="642">5610</text><polyline fill="red" points="969,610 1199,610 1204,630 964,630" /><rect fill="blue" height="20" width="1" x="1083" y="610" /><text fill="blue" x="1084" y="610">138</text><text fill="blue" x="1084" y="642">5690</text><polyline fill="red" points="1224,610 1454,610 1459,630 1219,630" /><rect fill="blue" height="20" width="1" x="1338" y="610" /><text fill="blue" x="1339" y="610">155</text><text fill="blue" x="1339" y="642">5775</text><text fill="black" x="10" y="670">WLAN A 100</text><line stroke="rgb(127,127,127)" x1="0" x2="1879" y1="650" y2="650" /><polyline fill="red" points="489,670 959,670 964,690 484,690" /><rect fill="blue" height="20" width="1" x="723" y="670" /><text fill="blue" x="724" y="670">114</text><text fill="blue" x="724" y="702">5570</text><text fill="black" x="10" y="730">ISM</text><line stroke="rgb(127,127,127)" x1="0" x2="1879" y1="710" y2="710" /><polyline fill="red" points="1194,730 1634,730 1639,750 1189,750" /><rect fill="blue" height="20" width="1" x="1413" y="730" /><text fill="blue" x="1414" y="730">ISM 5725 5875</text><text fill="blue" x="1414" y="762">5800</text><text fill="black" x="10" y="790">Amateurfunk</text><line stroke="rgb(127,127,127)" x1="0" x2="1879" y1="770" y2="770" /><polyline fill="red" points="969,790 1559,790 1564,810 964,810" /><rect fill="blue" height="20" width="1" x="1263" y="790" /><text fill="blue" x="1264" y="790">Amateurfunk</text><text fill="blue" x="1264" y="822">5750</text><text fill="black" x="10" y="850">Amateurfunk ueber Satelliten</text><line stroke="rgb(127,127,127)" x1="0" x2="1879" y1="830" y2="830" /><polyline fill="red" points="969,850 1019,850 1024,870 964,870" /><rect fill="blue" height="20" width="1" x="993" y="850" /><text fill="blue" x="994" y="850">Erde-Weltraum</text><text fill="blue" x="994" y="882">5660</text><polyline fill="red" points="1509,850 1559,850 1564,870 1504,870" /><rect fill="blue" height="20" width="1" x="1533" y="850" /><text fill="blue" x="1534" y="850">Weltraum-Erde</text><text fill="blue" x="1534" y="882">5840</text></svg>